<?xml version="1.0" encoding="UTF-8" standalone="no"?>
<!DOCTYPE svg PUBLIC "-//W3C//DTD SVG 1.1//EN" "http://www.w3.org/Graphics/SVG/1.1/DTD/svg11.dtd">
<svg width="100%" height="100%" viewBox="0 0 57 57" version="1.1" xmlns="http://www.w3.org/2000/svg" xmlns:xlink="http://www.w3.org/1999/xlink" xml:space="preserve" xmlns:serif="http://www.serif.com/" style="fill-rule:evenodd;clip-rule:evenodd;stroke-linejoin:round;stroke-miterlimit:2;">
    <g>
        <path d="M30.071,27.101L30.071,27.024C30.055,27.05 30.038,27.076 30.021,27.101L30.071,27.101Z" style="fill:#33363a;fill-rule:nonzero;"/>
        <path d="M49.265,4.667L7.145,4.667C5.129,4.667 3.494,6.263 3.494,8.23L3.494,50.843C3.494,52.809 5.129,54.405 7.145,54.405L49.265,54.405C51.284,54.405 52.919,52.808 52.919,50.843L52.919,8.23C52.919,6.262 51.283,4.667 49.265,4.667ZM18.475,46.304L11.01,46.304L11.01,23.845L18.475,23.845L18.475,46.304ZM14.743,20.777L14.693,20.777C12.189,20.777 10.569,19.052 10.569,16.897C10.569,14.694 12.239,13.017 14.792,13.017C17.346,13.017 18.917,14.694 18.967,16.897C18.967,19.052 17.345,20.777 14.743,20.777ZM45.395,46.304L37.929,46.304L37.929,34.286C37.929,31.268 36.849,29.208 34.148,29.208C32.086,29.208 30.858,30.597 30.317,31.939C30.12,32.418 30.072,33.088 30.072,33.76L30.072,46.303L22.607,46.303C22.607,46.303 22.705,25.949 22.607,23.844L30.072,23.844L30.072,27.023C31.064,25.493 32.838,23.314 36.801,23.314C41.712,23.314 45.395,26.525 45.395,33.424L45.395,46.304Z" style="fill:#33363a;fill-rule:nonzero;"/>
    </g>
</svg>
