<?xml version="1.0" encoding="UTF-8" standalone="no"?>
<!DOCTYPE svg PUBLIC "-//W3C//DTD SVG 1.1//EN" "http://www.w3.org/Graphics/SVG/1.1/DTD/svg11.dtd">
<svg width="100%" height="100%" viewBox="0 0 24 24" version="1.1" xmlns="http://www.w3.org/2000/svg" xmlns:xlink="http://www.w3.org/1999/xlink" xml:space="preserve" xmlns:serif="http://www.serif.com/" style="fill-rule:evenodd;clip-rule:evenodd;stroke-linejoin:round;stroke-miterlimit:2;">
    <g>
        <path d="M12.154,10.73L8.089,5.041L5.92,5.041L10.956,12.087L11.59,12.973L15.901,19.01L18.069,19.01L12.785,11.616L12.154,10.73Z" style="fill:#33363a;fill-rule:nonzero;"/>
        <path d="M21.16,1L2.84,1C1.824,1 1,1.824 1,2.84L1,21.16C1,22.176 1.824,23 2.84,23L21.16,23C22.176,23 23,22.176 23,21.16L23,2.84C23,1.824 22.176,1 21.16,1ZM15.235,20L10.873,13.787L5.411,20L4,20L10.247,12.895L4,4L8.765,4L12.895,9.882L18.07,4L19.481,4L13.524,10.776L20,20L15.235,20Z" style="fill:#33363a;fill-rule:nonzero;"/>
    </g>
</svg>
